<?xml version="1.0" standalone="no"?>
<!DOCTYPE svg PUBLIC "-//W3C//DTD SVG 20010904//EN"
 "http://www.w3.org/TR/2001/REC-SVG-20010904/DTD/svg10.dtd">
<svg version="1.0" xmlns="http://www.w3.org/2000/svg"
 width="1221.000000pt" height="841.000000pt" viewBox="0 0 1221.000000 841.000000"
 preserveAspectRatio="xMidYMid meet">

<g transform="translate(0.000000,841.000000) scale(0.100000,-0.100000)"
fill="#000000" stroke="none">
<path d="M5782 7287 l-382 -382 -509 -5 -510 -5 -30 -29 c-17 -17 -36 -46 -41
-65 -6 -23 -10 -645 -10 -1729 0 -1865 -5 -1734 61 -1768 38 -19 70 -12 104
22 l25 25 0 722 c1 397 3 1152 6 1677 l6 955 466 5 467 5 45 27 c25 14 187
168 360 342 173 174 320 316 325 315 6 0 100 -94 210 -207 110 -114 255 -259
321 -323 180 -172 121 -160 756 -157 l520 3 19 24 c41 51 33 113 -20 144 -26
15 -78 17 -530 17 l-500 0 -58 49 c-32 26 -141 133 -242 237 -237 245 -401
411 -443 451 l-33 33 -383 -383z"/>
<path d="M4009 6655 c-15 -8 -32 -29 -38 -46 -7 -22 -11 -188 -11 -515 0 -306
-4 -493 -10 -510 -10 -25 -114 -130 -584 -593 l-177 -174 385 -386 386 -387 0
-469 c0 -285 4 -484 10 -506 11 -41 52 -86 90 -101 38 -16 3432 -24 3468 -9
32 13 62 58 62 91 0 32 -30 78 -59 90 -18 7 -545 9 -1703 8 l-1677 -3 -3 465
c-3 461 -3 465 -26 511 -16 33 -118 142 -342 367 -176 176 -320 323 -320 327
0 5 139 145 310 312 222 218 319 320 342 361 l33 57 3 531 3 531 -30 32 c-32
35 -68 40 -112 16z"/>
<path d="M4699 6545 c-65 -36 -75 -115 -21 -154 27 -19 62 -19 1702 -23 l1675
-3 5 -470 5 -470 27 -46 c15 -25 167 -186 337 -356 171 -171 312 -316 313
-322 2 -6 -141 -156 -318 -333 -203 -205 -328 -338 -340 -363 -18 -38 -19 -73
-22 -568 -2 -358 1 -533 8 -547 16 -29 67 -52 99 -45 16 3 39 17 52 31 l24 26
5 511 c4 372 8 518 17 533 7 11 179 184 383 384 l371 364 -383 383 -383 383
-5 508 -5 507 -28 32 c-18 19 -44 35 -70 41 -26 6 -675 10 -1732 11 -1465 1
-1693 -1 -1716 -14z"/>
<path d="M7773 6235 c-17 -7 -37 -24 -45 -37 -11 -19 -13 -325 -13 -1708 l0
-1685 -465 -5 -465 -5 -49 -24 c-35 -17 -136 -111 -368 -342 -255 -253 -324
-317 -337 -309 -9 4 -71 66 -137 137 -270 284 -477 483 -534 511 l-55 27 -527
3 -526 3 -26 -23 c-16 -14 -29 -38 -32 -59 -5 -31 -1 -42 24 -70 l30 -34 514
-5 514 -5 50 -41 c27 -23 118 -113 203 -200 85 -88 235 -241 334 -342 l180
-184 384 384 383 383 493 5 c462 5 494 6 524 24 51 31 74 85 76 174 1 42 1
820 0 1729 l-3 1652 -25 26 c-14 14 -30 25 -35 25 -4 0 -14 2 -22 5 -7 2 -27
-2 -45 -10z"/>
<path d="M6115 6034 c-317 -48 -560 -169 -775 -384 -187 -187 -295 -383 -361
-655 -19 -74 -23 -120 -23 -265 -1 -195 8 -258 60 -420 145 -451 519 -788 990
-890 326 -71 678 -7 969 176 55 35 129 89 165 120 68 60 93 92 44 57 -99 -70
-307 -135 -490 -153 -471 -47 -942 214 -1154 638 -88 176 -124 329 -124 537
-1 228 48 407 163 600 123 206 278 350 488 454 158 78 292 110 493 119 133 5
134 6 90 19 -113 34 -183 44 -340 48 -91 2 -178 1 -195 -1z"/>
<path d="M6668 5281 c-40 -83 -78 -153 -86 -156 -7 -2 -85 -14 -172 -26 -88
-12 -160 -25 -160 -29 0 -4 55 -60 122 -124 l121 -117 -29 -174 c-16 -96 -29
-175 -28 -175 1 0 71 37 155 82 l154 81 158 -82 c86 -45 157 -80 157 -78 0 2
-9 55 -21 118 -11 63 -23 132 -25 154 -3 22 -7 46 -10 54 -3 9 43 62 121 141
l127 127 -59 7 c-32 4 -110 14 -173 24 l-115 17 -75 147 c-41 81 -78 150 -82
154 -4 3 -40 -62 -80 -145z"/>
<path d="M2530 5120 c-188 -22 -390 -95 -542 -197 -94 -62 -265 -233 -302
-302 -48 -89 -45 -98 178 -586 109 -236 216 -470 238 -520 23 -49 57 -124 76
-165 19 -41 51 -113 72 -160 35 -79 140 -309 262 -575 28 -60 61 -132 73 -160
66 -144 160 -345 191 -408 63 -126 277 -497 287 -497 5 0 30 17 56 39 214 178
514 334 788 411 485 136 985 115 1641 -71 95 -27 189 -56 209 -64 20 -9 38
-14 39 -12 6 6 -299 141 -421 188 -775 295 -1436 298 -2090 10 -38 -17 -78
-36 -89 -42 -10 -6 -21 -7 -25 -2 -4 4 -32 64 -63 133 -136 303 -168 370 -297
630 -179 358 -507 999 -586 1145 -34 62 -208 398 -258 497 -57 112 -45 179 50
269 231 219 475 303 948 324 306 13 337 16 324 31 -13 16 -48 26 -179 54 -180
37 -414 49 -580 30z"/>
<path d="M9250 5115 c-174 -21 -358 -71 -338 -91 3 -2 99 -9 214 -14 406 -19
552 -41 726 -110 127 -49 240 -122 334 -215 84 -82 101 -123 84 -201 -6 -27
-15 -53 -19 -59 -5 -5 -52 -95 -106 -200 -54 -104 -110 -212 -125 -240 -15
-27 -66 -124 -113 -215 -398 -771 -620 -1217 -752 -1507 -66 -145 -120 -263
-121 -263 -1 0 -35 15 -75 34 -241 109 -408 160 -679 206 -211 37 -516 32
-775 -11 -277 -46 -624 -155 -905 -286 -41 -19 -97 -44 -123 -55 -26 -11 -46
-22 -44 -24 1 -2 45 10 97 27 245 77 550 146 775 176 181 23 528 23 690 -1
396 -59 742 -206 1063 -453 45 -34 86 -63 90 -63 13 0 253 426 318 565 75 160
295 639 352 765 11 25 99 218 195 430 96 212 186 410 200 440 87 191 246 540
286 625 62 135 63 186 7 271 -52 78 -191 213 -284 276 -256 173 -592 240 -972
193z"/>
<path d="M1278 3744 c-3 -3 57 -132 134 -287 77 -155 180 -363 228 -462 48
-99 201 -409 340 -690 139 -280 310 -627 380 -770 70 -143 179 -365 243 -493
63 -127 117 -237 119 -244 6 -17 29 0 83 62 467 536 949 798 1630 886 168 22
577 22 915 0 135 -9 261 -16 280 -15 l35 1 -30 9 c-69 23 -268 71 -385 93
-304 59 -474 76 -740 76 -654 -1 -1187 -227 -1644 -697 -44 -46 -82 -83 -86
-83 -3 0 -14 17 -25 37 -11 21 -38 70 -61 108 -22 39 -110 192 -194 340 -208
369 -221 391 -309 545 -42 74 -127 223 -188 330 -61 107 -201 353 -311 547
-110 193 -215 378 -233 410 -28 51 -113 199 -159 276 -9 15 -19 25 -22 21z"/>
<path d="M10858 3639 c-36 -63 -89 -157 -118 -209 -29 -52 -65 -115 -80 -140
-15 -25 -48 -82 -73 -127 -100 -178 -409 -722 -751 -1323 -112 -195 -246 -433
-300 -528 -54 -94 -101 -174 -105 -176 -4 -3 -52 41 -107 96 -337 341 -747
563 -1184 642 -181 32 -277 38 -522 33 -320 -6 -546 -39 -928 -133 -164 -41
-195 -53 -124 -48 765 54 1046 53 1379 -6 416 -75 809 -255 1110 -510 50 -43
298 -291 361 -363 l60 -68 166 338 c175 354 521 1056 910 1843 328 663 380
770 376 782 -2 6 -34 -40 -70 -103z"/>
<path d="M5255 1589 c-260 -10 -554 -34 -680 -55 -381 -64 -666 -195 -913
-419 -31 -27 -71 -67 -90 -87 -19 -21 -58 -49 -85 -63 -82 -41 -142 -31 -199
33 -15 17 -49 37 -77 47 l-52 17 -39 -44 c-47 -51 -49 -72 -14 -147 72 -155
231 -182 449 -76 74 37 124 76 283 220 127 117 136 123 226 184 238 161 545
252 1171 346 94 14 206 32 250 39 94 17 89 17 -230 5z"/>
<path d="M6660 1593 c14 -2 129 -20 255 -39 678 -102 964 -183 1210 -341 88
-58 155 -112 281 -231 129 -120 207 -174 307 -212 150 -58 266 -49 339 28 42
43 64 83 73 134 6 34 3 41 -36 83 -44 45 -44 45 -84 34 -22 -6 -56 -25 -75
-43 -109 -102 -170 -91 -335 64 -115 108 -218 186 -332 252 -120 69 -198 101
-388 161 -143 45 -418 80 -760 96 -273 13 -487 20 -455 14z"/>
<path d="M6797 1146 c-93 -35 -140 -101 -140 -198 0 -79 39 -143 108 -178 67
-34 160 -34 227 -2 63 31 68 49 21 88 -37 31 -39 32 -58 14 -44 -39 -129 -29
-154 18 -14 27 -14 94 0 126 21 45 118 59 150 20 6 -8 17 -14 23 -14 12 0 76
61 76 73 0 3 -20 18 -45 33 -56 32 -150 42 -208 20z"/>
<path d="M4180 950 l0 -200 65 0 65 0 0 53 c0 48 12 77 32 77 4 0 31 -29 59
-65 l51 -65 138 0 138 0 12 35 12 35 83 0 84 0 12 -35 c13 -35 13 -35 76 -35
44 0 63 4 62 13 0 6 -37 95 -83 197 l-83 185 -66 3 c-65 3 -67 2 -78 -25 -6
-15 -17 -41 -24 -58 -8 -16 -41 -90 -73 -163 -32 -74 -62 -135 -66 -135 -5 -1
-45 45 -88 102 -90 118 -91 97 11 210 l63 71 -64 0 -64 0 -70 -72 -69 -71 -3
71 -3 72 -64 0 -65 0 0 -200z m662 -28 c-19 -2 -36 -2 -38 1 -2 2 4 25 13 52
l16 49 22 -50 22 -49 -35 -3z"/>
<path d="M5140 950 l0 -200 65 0 65 0 0 75 0 75 70 0 70 0 0 -75 0 -75 65 0
65 0 0 200 0 200 -65 0 -64 0 -3 -67 -3 -68 -67 -3 -68 -3 0 71 0 70 -65 0
-65 0 0 -200z"/>
<path d="M5640 950 l0 -200 60 0 59 0 3 88 3 87 44 -67 c40 -60 48 -68 76 -68
24 0 35 6 43 24 6 14 23 44 38 67 33 54 44 40 44 -59 l0 -73 58 3 57 3 3 175
c4 227 5 222 -60 218 l-51 -3 -61 -97 c-34 -53 -64 -100 -68 -103 -6 -6 -49
56 -110 159 -27 46 -28 46 -83 46 l-55 0 0 -200z"/>
<path d="M6230 950 l0 -200 65 0 65 0 0 200 0 200 -65 0 -65 0 0 -200z"/>
<path d="M7140 950 l0 -200 65 0 65 0 0 200 0 200 -65 0 -65 0 0 -200z"/>
<path d="M7340 1100 l0 -50 60 0 60 0 0 -150 0 -150 65 0 65 0 0 150 0 150 60
0 60 0 0 50 0 50 -185 0 -185 0 0 -50z"/>
<path d="M7897 1143 c-3 -5 -42 -91 -87 -193 -45 -102 -84 -189 -87 -193 -3
-4 26 -7 63 -5 68 3 68 3 78 36 l9 32 86 0 87 0 13 -35 12 -35 65 0 c35 0 64
1 64 3 0 4 -109 256 -147 340 l-27 57 -62 0 c-35 0 -65 -3 -67 -7z m81 -160
c5 -16 13 -36 17 -45 6 -15 1 -18 -33 -18 l-40 0 17 45 c9 25 19 45 22 45 4 0
12 -12 17 -27z"/>
</g>
</svg>
